#!OML:ASF G:\JayActor3\Patient Classification 1\Patient 1\Session 5\male.ASF
:FULLY-SPECIFIED
:DEGREES
875
root 34.2282 17.1775 -6.35626 -643.452 -94.1391 661.769
lowerback 24.3008 -1.6936 1.45234
upperback 6.35223 -2.43826 -1.56528
thorax -6.63024 -1.38057 -1.80254
lowerneck 6.21487 1.6 3.3606
upperneck -19.1926 2.16129 -0.999436
head -6.82092 0.73586 -1.03013
rclavicle 5.86415e-015 1.8487e-014
rhumerus -28.4949 -1.62659 -90.1752
rradius 32.8077
rwrist 0.627994
rhand -21.711 -9.01704
rfingers 7.12502
rthumb 4.68788 -38.9452
lclavicle 5.86415e-015 1.8487e-014
lhumerus -28.8064 -4.09704 86.6574
lradius 31.813
lwrist 22.2586
lhand -20.3561 9.75501
lfingers 7.12502
lthumb 5.99606 39.6502
rfemur -54.616 3.53776 15.1956
rtibia 32.4653
rfoot 8.95117 -7.95292
rtoes 10.3438
lfemur -34.5984 13.8966 -31.6283
ltibia 40.0272
lfoot 9.17653 -16.1218
ltoes -16.5378
876
root 34.3415 17.1912 -6.35207 -644.946 -94.1169 663.372
lowerback 24.3426 -1.68608 1.44199
upperback 6.3198 -2.43007 -1.57285
thorax -6.68673 -1.37645 -1.80579
lowerneck 6.17571 1.60881 3.34587
upperneck -19.2184 2.1697 -0.989765
head -6.82239 0.738731 -1.0249
rclavicle 1.04362e-014 1.28216e-014
rhumerus -28.4721 -1.58705 -90.1882
rradius 32.7914
rwrist 0.667753
rhand -21.7342 -8.99104
rfingers 7.12502
rthumb 4.66539 -38.9197
lclavicle 1.04362e-014 1.28216e-014
lhumerus -28.8266 -4.11969 86.6701
lradius 31.8002
lwrist 22.2157
lhand -20.374 9.80042
lfingers 7.12502
lthumb 5.97878 39.6961
rfemur -54.7992 3.65955 15.138
rtibia 33.8989
rfoot 7.59434 -6.33292
rtoes 8.39283
lfemur -34.9901 13.9793 -31.7374
ltibia 39.7487
lfoot 9.24907 -15.9982
ltoes -16.3983
877
root 34.453 17.208 -6.34887 -646.405 -94.075 664.959
lowerback 24.3639 -1.68116 1.44529
upperback 6.28755 -2.4212 -1.57446
thorax -6.7328 -1.37191 -1.81108
lowerneck 6.14571 1.61414 3.3323
upperneck -19.273 2.17493 -0.970054
head -6.83498 0.738235 -1.0167
rclavicle 4.7112e-014 1.75924e-014
rhumerus -28.4506 -1.56491 -90.1964
rradius 32.7692
rwrist 0.713464
rhand -21.7859 -8.91393
rfingers 7.12502
rthumb 4.61553 -38.8436
lclavicle 4.7112e-014 1.75924e-014
lhumerus -28.8447 -4.15652 86.6774
lradius 31.79
lwrist 22.1729
lhand -20.3603 9.83788
lfingers 7.12502
lthumb 5.99199 39.7331
rfemur -54.9961 3.82338 15.0609
rtibia 35.4589
rfoot 6.45852 -5.0367
rtoes 6.40502
lfemur -35.3834 14.0092 -31.8114
ltibia 39.4381
lfoot 9.38984 -15.8418
ltoes -16.289
878
root 34.5625 17.2273 -6.34655 -647.926 -94.0034 666.623
lowerback 24.3607 -1.68048 1.47474
upperback 6.25622 -2.41062 -1.56903
thorax -6.76604 -1.36659 -1.8248
lowerneck 6.12913 1.61708 3.32442
upperneck -19.3529 2.17846 -0.945876
head -6.85816 0.735407 -1.0082
rclavicle 1.72943e-014 7.85199e-015
rhumerus -28.4366 -1.55384 -90.2034
rradius 32.7613
rwrist 0.739307
rhand -21.8247 -8.82472
rfingers 7.12502
rthumb 4.57808 -38.7553
lclavicle 1.72943e-014 7.85199e-015
lhumerus -28.8598 -4.20174 86.6751
lradius 31.7817
lwrist 22.1332
lhand -20.3136 9.86914
lfingers 7.12502
lthumb 6.03711 39.7631
rfemur -55.1941 4.01943 14.9885
rtibia 37.1218
rfoot 5.56329 -4.05355
rtoes 4.43725
lfemur -35.7784 13.9873 -31.8331
ltibia 39.105
lfoot 9.59303 -15.6552
ltoes -16.2283
879
root 34.67 17.2486 -6.34504 -649.694 -93.8946 668.544
lowerback 24.3384 -1.68458 1.53915
upperback 6.22628 -2.39671 -1.55309
thorax -6.78856 -1.35987 -1.84857
lowerneck 6.12459 1.62077 3.31955
upperneck -19.4513 2.18362 -0.921842
head -6.88939 0.732657 -1.00062
rclavicle 6.95746e-016 -7.7526e-015
rhumerus -28.4333 -1.54123 -90.2116
rradius 32.7598
rwrist 0.765351
rhand -21.8871 -8.67838
rfingers 7.12502
rthumb 4.51782 -38.6102
lclavicle 6.95746e-016 -7.7526e-015
lhumerus -28.8726 -4.23986 86.6613
lradius 31.7747
lwrist 22.0951
lhand -20.2361 9.89037
lfingers 7.12502
lthumb 6.11184 39.7822
rfemur -55.3785 4.24541 14.9467
rtibia 38.8627
rfoot 4.86852 -3.34818
rtoes 2.42743
lfemur -36.1753 13.9215 -31.7871
ltibia 38.7628
lfoot 9.84985 -15.4335
ltoes -16.1813
880
root 34.7755 17.2712 -6.3441 -651.782 -93.751 670.787
lowerback 24.3019 -1.69341 1.64321
upperback 6.19835 -2.37851 -1.52773
thorax -6.80243 -1.35142 -1.8864
lowerneck 6.1279 1.62518 3.31446
upperneck -19.5537 2.19 -0.898799
head -6.9233 0.730536 -0.993524
rclavicle 9.64106e-015 -3.57812e-015
rhumerus -28.4409 -1.53148 -90.2177
rradius 32.7794
rwrist 0.762327
rhand -21.9104 -8.54245
rfingers 7.12502
rthumb 4.49528 -38.4748
lclavicle 9.64106e-015 -3.57812e-015
lhumerus -28.8883 -4.27094 86.6361
lradius 31.7699
lwrist 22.0658
lhand -20.1321 9.89799
lfingers 7.12502
lthumb 6.21231 39.7869
rfemur -55.531 4.48074 14.9558
rtibia 40.6623
rfoot 4.28988 -2.88637
rtoes 0.406893
lfemur -36.5679 13.8266 -31.6785
ltibia 38.4197
lfoot 10.1454 -15.1888
ltoes -16.1671
881
root 34.8789 17.2946 -6.34373 -654.296 -93.5789 673.446
lowerback 24.26 -1.7061 1.78088
upperback 6.17357 -2.35654 -1.49217
thorax -6.81047 -1.34152 -1.93365
lowerneck 6.13948 1.63196 3.30524
upperneck -19.6513 2.19942 -0.878381
head -6.95709 0.730679 -0.986877
rclavicle 5.56597e-015 -1.13307e-014
rhumerus -28.4601 -1.51026 -90.2244
rradius 32.8272
rwrist 0.725522
rhand -21.885 -8.4863
rfingers 7.12502
rthumb 4.51984 -38.4181
lclavicle 5.56597e-015 -1.13307e-014
lhumerus -28.9083 -4.28781 86.6013
lradius 31.7684
lwrist 22.05
lhand -20.0205 9.89782
lfingers 7.12502
lthumb 6.32 39.7835
rfemur -55.6325 4.71114 15.0287
rtibia 42.5022
rfoot 3.74291 -2.66287
rtoes -1.6244
lfemur -36.9471 13.7203 -31.514
ltibia 38.0818
lfoot 10.4672 -14.9232
ltoes -16.1555
882
root 34.9803 17.3177 -6.34396 -657.243 -93.3931 676.522
lowerback 24.2204 -1.72135 1.93801
upperback 6.15283 -2.33294 -1.44942
thorax -6.81538 -1.33116 -1.98467
lowerneck 6.14618 1.64066 3.29141
upperneck -19.7257 2.21069 -0.861538
head -6.9825 0.733111 -0.980544
rclavicle -1.23246e-014 -3.97569e-014
rhumerus -28.4871 -1.47578 -90.2329
rradius 32.8961
rwrist 0.659299
rhand -21.8161 -8.52903
rfingers 7.12502
rthumb 4.58634 -38.4594
lclavicle -1.23246e-014 -3.97569e-014
lhumerus -28.9343 -4.28862 86.5568
lradius 31.7711
lwrist 22.0466
lhand -19.9164 9.89747
lfingers 7.12502
lthumb 6.42048 39.7802
rfemur -55.6677 4.91949 15.1631
rtibia 44.3647
rfoot 3.18032 -2.68448
rtoes -3.41088
lfemur -37.3107 13.6266 -31.3203
ltibia 37.749
lfoot 10.7994 -14.6586
ltoes -16.1749
883
root 35.0799 17.3399 -6.34468 -660.578 -93.2009 679.965
lowerback 24.184 -1.74004 2.11079
upperback 6.13765 -2.3102 -1.4025
thorax -6.81602 -1.3215 -2.03983
lowerneck 6.15191 1.6514 3.27765
upperneck -19.7761 2.22461 -0.850033
head -6.99985 0.738122 -0.975982
rclavicle -2.78299e-015 7.95139e-016
rhumerus -28.5177 -1.42864 -90.2433
rradius 32.9598
rwrist 0.601937
rhand -21.7619 -8.60925
rfingers 7.12502
rthumb 4.63871 -38.5385
lclavicle -2.78299e-015 7.95139e-016
lhumerus -28.9653 -4.28041 86.5041
lradius 31.7767
lwrist 22.0592
lhand -19.8301 9.89718
lfingers 7.12502
lthumb 6.50386 39.7773
rfemur -55.6221 5.08332 15.3603
rtibia 46.2277
rfoot 2.58537 -2.9161
rtoes -4.93766
lfemur -37.6512 13.5526 -31.1105
ltibia 37.4198
lfoot 11.1187 -14.4087
ltoes -16.2989
